<svg width="55" height="55" viewBox="0 0 55 55" fill="none" xmlns="http://www.w3.org/2000/svg">
<rect width="55" height="55" rx="4" fill="#1E293B"/>
<path d="M10.12 42.04C10.12 44 11.68 45.4 13.56 45.4C15.44 45.4 17.04 44 17.04 42.04C17.04 40.12 15.44 38.72 13.56 38.72C11.68 38.72 10.12 40.12 10.12 42.04ZM35.5719 45H41.0919V26.32H35.5719V28.4C34.0519 26.36 31.3719 25.92 30.1319 25.92C25.3719 25.92 20.6119 29.68 20.6119 35.64C20.6119 41.6 25.3719 45.36 30.1319 45.36C31.5319 45.36 34.4119 44.64 35.5719 42.88V45ZM26.3719 35.64C26.3719 32.96 28.6919 31.2 31.0519 31.2C33.3319 31.2 35.5719 32.88 35.5719 35.64C35.5719 38.44 33.3319 40.08 31.0519 40.08C28.6919 40.08 26.3719 38.32 26.3719 35.64ZM51.7441 26.32H46.2241V45H51.7441V26.32ZM45.5041 19.4C45.5041 21.2 47.1041 22.68 48.9841 22.68C50.9041 22.68 52.3841 21.2 52.3841 19.4C52.3841 17.52 50.8641 16.16 48.9841 16.16C47.1041 16.16 45.5041 17.56 45.5041 19.4Z" fill="white"/>
</svg>
