<svg width="104" height="24" viewBox="0 0 104 24" fill="none" xmlns="http://www.w3.org/2000/svg">
<path d="M3.872 14.088C3.872 11.112 4.736 9.624 6.656 9.624C7.208 9.624 7.76 9.672 8.36 9.96L8.96 6.96C8.408 6.696 7.832 6.552 7.04 6.552C5.888 6.552 4.448 7.416 3.872 9.504V6.792H0.536V18H3.872V14.088ZM19.0889 14.304C18.5369 15.048 17.5769 15.36 16.6409 15.36C15.4409 15.36 14.0729 14.784 13.8809 13.488H22.0889C22.1129 13.2 22.1369 12.744 22.1369 12.456C22.1369 8.928 19.5929 6.552 16.4009 6.552C13.2089 6.552 10.5449 8.808 10.5449 12.36C10.5449 15.888 13.2089 18.24 16.4009 18.24C18.3209 18.24 20.3609 17.64 21.5129 15.96L19.0889 14.304ZM13.9289 11.4C14.1929 9.96 15.5129 9.48 16.4249 9.48C17.3849 9.48 18.5849 10.032 18.7769 11.4H13.9289ZM28.5163 12.432C28.5163 10.8 29.6923 9.72 31.1083 9.72C32.5243 9.72 33.7003 10.776 33.7003 12.432C33.7003 14.064 32.5483 15.096 31.1083 15.096C29.7643 15.096 28.5163 14.112 28.5163 12.432ZM25.1323 6.792V23.496H28.4443V16.632C28.9963 17.664 30.3163 18.24 31.7323 18.24C34.6123 18.24 37.1563 15.96 37.1563 12.36C37.1563 8.808 34.6123 6.552 31.7323 6.552C30.3163 6.552 28.9963 7.152 28.4443 8.184V6.792H25.1323ZM43.6258 12.072C43.6258 10.368 44.8017 9.792 45.8577 9.792C46.8898 9.792 47.9218 10.56 47.9218 12.024V18H51.2578V11.904C51.2578 8.52 49.7458 6.552 46.7698 6.552C45.7138 6.552 44.0578 7.152 43.6258 8.544V0.696H40.2897V18H43.6258V12.072ZM58.2442 14.088C58.2442 11.112 59.1082 9.624 61.0282 9.624C61.5802 9.624 62.1322 9.672 62.7322 9.96L63.3322 6.96C62.7802 6.696 62.2042 6.552 61.4122 6.552C60.2602 6.552 58.8202 7.416 58.2442 9.504V6.792H54.9082V18H58.2442V14.088ZM73.8931 18H77.2051V6.792H73.8931V8.04C72.9811 6.816 71.3731 6.552 70.6291 6.552C67.7731 6.552 64.9171 8.808 64.9171 12.384C64.9171 15.96 67.7731 18.216 70.6291 18.216C71.4691 18.216 73.1971 17.784 73.8931 16.728V18ZM68.3731 12.384C68.3731 10.776 69.7651 9.72 71.1811 9.72C72.5491 9.72 73.8931 10.728 73.8931 12.384C73.8931 14.064 72.5491 15.048 71.1811 15.048C69.7651 15.048 68.3731 13.992 68.3731 12.384ZM85.3724 13.776C86.2124 13.992 86.4764 14.256 86.4764 14.736C86.4764 15.312 85.8524 15.648 85.1084 15.672C84.1724 15.672 83.4764 15.024 83.4524 14.376H80.3324C80.3324 16.872 82.7564 18.24 85.0124 18.24C87.3644 18.24 89.8604 17.112 89.8604 14.736C89.8604 13.992 89.5244 12.24 86.8124 11.472L84.9164 10.968C84.2444 10.8 83.9564 10.488 83.9324 10.128C83.9084 9.624 84.3644 9.288 85.1084 9.288C85.6604 9.288 86.3564 9.432 86.3804 10.272H89.5244C89.5244 7.512 87.1244 6.552 84.9164 6.552C82.5644 6.552 80.5484 8.088 80.5484 9.744C80.5484 10.776 80.5244 12.504 83.9084 13.392L85.3724 13.776ZM100.8 14.304C100.248 15.048 99.2876 15.36 98.3516 15.36C97.1516 15.36 95.7836 14.784 95.5916 13.488H103.8C103.824 13.2 103.848 12.744 103.848 12.456C103.848 8.928 101.304 6.552 98.1116 6.552C94.9196 6.552 92.2556 8.808 92.2556 12.36C92.2556 15.888 94.9196 18.24 98.1116 18.24C100.032 18.24 102.072 17.64 103.224 15.96L100.8 14.304ZM95.6396 11.4C95.9036 9.96 97.2236 9.48 98.1356 9.48C99.0956 9.48 100.296 10.032 100.488 11.4H95.6396Z" fill="#28364E"/>
</svg>
